<svg id="logosandtypes_com" data-name="logosandtypes com" xmlns="http://www.w3.org/2000/svg" viewBox="0 0 150 150">
    <defs>
        <style>.cls-1{fill:none;}.cls-2{fill:#249CFF;fill-rule:evenodd;}</style>
    </defs>
    <path class="cls-1" d="M0,0H150V150H0Z" transform="translate(0 0)" />
    <path class="cls-2" d="M112.74,12.85h34.07L115.16,100a6.06,6.06,0,0,1-5.71,4H76v0a6.07,6.07,0,0,0,5.09-4Z" transform="translate(0 0)" />
    <path class="cls-2" d="M73.28,102.7A5.73,5.73,0,0,1,68,99.23L61.19,80.47l11.61-32a5.77,5.77,0,0,1,10.73-.31l6.79,18.68-11.61,32A5.73,5.73,0,0,1,73.28,102.7Z" transform="translate(0 0)" />
    <path class="cls-2" d="M75.75,43.33v0a6,6,0,0,0-5.45,4L38.65,134.5H4.58L36.23,47.33a6.07,6.07,0,0,1,5.7-4Z" transform="translate(0 0)" />
</svg>